<svg xmlns="http://www.w3.org/2000/svg" width="512" height="512" viewBox="0 0 512 512" version="1.1"><path d="M 294.655 84.829 C 292.511 87.197, 292.549 89.635, 294.750 90.932 C 296.137 91.750, 296.227 92.143, 295.184 92.832 C 294.459 93.309, 293.772 94.330, 293.655 95.100 C 293.539 95.870, 293.070 97.098, 292.614 97.830 C 292.055 98.724, 292.882 100.204, 295.142 102.353 C 296.989 104.109, 299.175 106.594, 300 107.875 C 300.825 109.155, 302.908 112.070, 304.629 114.352 C 308.499 119.483, 312.181 129.419, 310.745 130.855 C 309.376 132.224, 316.764 135.276, 319.677 134.545 C 320.887 134.241, 322.126 134.395, 322.430 134.887 C 323.742 137.009, 333.218 141, 336.946 141 C 339.906 141, 341.205 141.514, 342 143 C 342.589 144.100, 343.842 145.014, 344.785 145.032 C 345.728 145.049, 347.329 145.692, 348.342 146.459 C 349.355 147.227, 351.903 148.146, 354.003 148.501 C 356.103 148.855, 358.607 150.013, 359.566 151.073 C 360.525 152.133, 361.919 153, 362.664 153 C 363.408 153, 365.881 154.350, 368.159 156 C 370.436 157.650, 372.704 159, 373.198 159 C 375.481 159, 385.408 166.490, 391.313 172.668 C 398.987 180.696, 398.694 180.409, 406.851 187.907 C 412.335 192.949, 413.876 193.825, 418.146 194.331 C 423.507 194.966, 425.968 194.244, 430.323 190.759 C 432.876 188.716, 434.216 188.500, 444.364 188.500 C 453.972 188.500, 455.990 188.787, 458.417 190.500 C 465.282 195.346, 466.641 196.023, 468.991 195.769 C 472.463 195.394, 472.678 192.630, 469.353 191.115 C 467.854 190.432, 464.912 188.514, 462.814 186.853 C 459.559 184.275, 459 183.258, 459 179.916 C 459 176.003, 458.996 176, 454.750 175.823 C 452.413 175.726, 445.505 175.779, 439.401 175.939 C 428.093 176.238, 424 175.328, 424 172.516 C 424 171.739, 422.875 169.889, 421.500 168.405 C 420.125 166.922, 419 165.282, 419 164.762 C 419 164.241, 418.100 162.671, 417 161.273 C 415.900 159.874, 415 157.447, 415 155.879 C 415 153.675, 414.118 152.445, 411.112 150.455 C 408.973 149.040, 405.154 145.064, 402.625 141.619 C 400.097 138.175, 396.109 133.831, 393.764 131.965 C 391.419 130.100, 389.349 128.216, 389.164 127.779 C 388.979 127.342, 386.167 124.937, 382.914 122.434 C 377.979 118.636, 377 117.377, 377 114.828 C 377 111.915, 377.151 111.803, 380.250 112.422 C 382.038 112.779, 386.151 113.338, 389.391 113.666 L 395.282 114.261 394.560 111.382 C 394.163 109.799, 393.762 108.489, 393.669 108.470 C 393.576 108.451, 391.475 107.488, 389 106.329 C 386.525 105.169, 382.819 103.688, 380.764 103.038 C 378.709 102.387, 376.770 101.437, 376.455 100.927 C 376.140 100.417, 374.874 100, 373.641 100 C 372.408 100, 370.914 99.514, 370.321 98.921 C 369.727 98.327, 367.360 97.419, 365.060 96.902 C 360.427 95.861, 353.065 97.733, 349.640 100.822 C 348.064 102.244, 345.481 102.488, 332.698 102.423 C 320.888 102.363, 317.517 102.050, 317.160 100.980 C 316.097 97.791, 312.044 95, 308.478 95 C 305.314 95, 304.944 94.750, 305.503 92.989 C 306.030 91.331, 305.584 90.867, 302.958 90.342 C 300.574 89.865, 299.423 88.863, 298.374 86.352 C 296.737 82.436, 296.798 82.461, 294.655 84.829 M 430.966 139.064 C 430.059 140.759, 430.303 141.708, 432.331 144.367 C 433.690 146.149, 436.403 148.704, 438.361 150.045 C 440.318 151.386, 444.301 155.543, 447.210 159.281 C 452.568 166.165, 455.947 168.181, 458.905 166.257 C 461.993 164.247, 459.934 158.652, 452.781 149.619 C 444.272 138.872, 433.784 133.798, 430.966 139.064 M 322.667 150.667 C 321.399 151.934, 322.008 153, 324 153 C 325.111 153, 326 152.333, 326 151.500 C 326 149.978, 323.885 149.449, 322.667 150.667 M 323.667 154.667 C 322.434 155.899, 322.986 161.049, 324.618 163.540 C 326.286 166.086, 327.283 175.461, 326.386 180.166 C 325.402 185.327, 315.367 186.968, 308.239 183.134 C 306.995 182.465, 305.420 182.009, 304.739 182.122 C 304.057 182.234, 302.298 181.988, 300.829 181.574 C 295.914 180.191, 294.190 181.551, 299 183.018 C 301.475 183.772, 305.179 185.427, 307.230 186.695 C 309.282 187.963, 311.182 189, 311.453 189 C 311.988 189, 321.561 193.210, 326.686 195.699 C 330.410 197.508, 335.586 196.868, 339.149 194.160 C 344.657 189.972, 353.288 185.992, 360.144 184.479 C 374.613 181.284, 375 181.130, 375 178.533 C 375 176.855, 374.064 175.680, 371.846 174.573 C 370.112 173.708, 368.121 173, 367.423 173 C 365.593 173, 360 168.070, 360 166.456 C 360 165.681, 358.451 164.800, 356.420 164.419 C 354.451 164.050, 352.603 163.129, 352.313 162.374 C 351.996 161.546, 350.292 161, 348.028 161 C 345.693 161, 343.231 160.183, 341.529 158.844 C 337.729 155.855, 325.369 152.965, 323.667 154.667 M 290 207.965 C 290 208.495, 290.986 209.457, 292.190 210.102 L 294.380 211.274 292.190 213.047 C 289.029 215.606, 289.491 217, 293.500 217 C 295.425 217, 297 217.450, 297 218 C 297 218.550, 296.334 219, 295.519 219 C 293.669 219, 292.572 223.111, 293.365 227.075 C 293.783 229.165, 293.537 230.240, 292.556 230.617 C 291.586 230.989, 293.314 233.257, 298.099 237.892 C 304.700 244.287, 305.101 244.939, 306.045 250.799 C 307.432 259.413, 305.791 263.159, 299.316 266.158 C 296.667 267.385, 294.149 268.864, 293.720 269.444 C 293.291 270.025, 293.052 273.425, 293.188 277 C 293.325 280.575, 293.084 284.067, 292.653 284.760 C 292.148 285.572, 293.046 286.986, 295.185 288.742 C 305.702 297.381, 307.509 301.402, 306.731 314.442 C 306.089 325.191, 302.677 334.029, 298.227 336.466 C 292.739 339.472, 291.583 340.793, 292.974 342.469 C 294.765 344.627, 297.670 344.371, 298.290 342 C 298.898 339.674, 301.680 339.443, 304.387 341.492 C 306.025 342.732, 306.550 342.728, 308.360 341.461 C 309.507 340.657, 312.343 340, 314.663 340 C 316.984 340, 319.160 339.550, 319.500 339 C 319.840 338.450, 321.351 338, 322.859 338 C 324.367 338, 326.162 337.438, 326.850 336.750 C 327.537 336.063, 329.888 335.472, 332.074 335.437 C 334.984 335.392, 336.460 334.789, 337.581 333.187 C 338.557 331.794, 340.164 331, 342.007 331 C 343.598 331, 345.260 330.391, 345.700 329.646 C 346.766 327.841, 350.390 326, 352.877 326 C 355.281 326, 361.628 322.412, 362.294 320.677 C 362.554 319.999, 365.312 318.157, 368.422 316.584 C 371.533 315.010, 374.469 312.993, 374.946 312.101 C 376.526 309.149, 377.937 285.887, 377.014 278 C 375.174 262.263, 372.725 256.095, 364.985 247.699 C 355.540 237.453, 353.027 234.420, 353.014 233.250 C 353.006 232.563, 352.595 232, 352.099 232 C 351.604 232, 348.566 230.043, 345.349 227.651 C 338.735 222.733, 324.004 215.334, 318.895 214.363 C 317.028 214.009, 315.024 213.349, 314.443 212.897 C 313.861 212.445, 310.936 211.411, 307.943 210.599 C 304.949 209.787, 300.928 208.645, 299.007 208.061 C 294.648 206.737, 290 206.688, 290 207.965 M 240.688 255.646 C 240.309 256.024, 240 259.183, 240 262.667 C 240 268.380, 240.200 269, 242.046 269 C 243.932 269, 244.068 268.479, 243.796 262.330 C 243.525 256.213, 242.444 253.889, 240.688 255.646 M 324.587 351.032 C 322.435 352.106, 319.960 353.631, 319.087 354.422 C 317.931 355.467, 317.006 355.583, 315.691 354.847 C 314.261 354.047, 313.381 354.375, 311.489 356.417 C 309.794 358.247, 308.074 359, 305.595 359 C 301.327 359, 297 360.843, 297 362.661 C 297 364.387, 295.009 364.322, 292.625 362.516 C 291.533 361.690, 291 360.444, 291.348 359.536 C 291.833 358.273, 291.428 358.100, 289.223 358.628 C 285.644 359.487, 285.653 359.472, 287.171 361.903 C 287.892 363.056, 289.305 364, 290.312 364 C 291.319 364, 292.853 364.710, 293.721 365.578 C 294.725 366.583, 296.061 366.909, 297.399 366.478 C 298.555 366.105, 303.325 364.745, 308 363.455 C 324.721 358.841, 329.099 357.106, 332.082 353.913 C 333.683 352.199, 334.743 350.392, 334.437 349.898 C 333.517 348.409, 328.743 348.958, 324.587 351.032 M 297.746 398.625 C 296.236 399.416, 295 400.725, 295 401.532 C 295 403.547, 296.010 403.329, 299.358 400.590 C 302.727 397.834, 301.683 396.562, 297.746 398.625 M 289 405 C 289 406.253, 290.061 406.253, 292 405 C 293.213 404.216, 293.069 404.028, 291.250 404.015 C 290.012 404.007, 289 404.450, 289 405" stroke="none" fill="#0590d3" fill-rule="evenodd"/><path d="M 267.471 74.891 C 265.103 75.919, 253 88.607, 253 90.061 C 253 91.418, 257.460 92.998, 261.315 93.008 C 263.067 93.012, 267.271 94.474, 270.658 96.258 C 278.377 100.322, 292.551 115.608, 296.846 124.500 C 298.440 127.800, 300.589 131.236, 301.622 132.135 C 302.655 133.034, 308.450 135.204, 314.500 136.959 C 336.966 143.474, 343.797 145.933, 356 151.902 C 369.865 158.684, 378.089 163.955, 388.398 172.669 C 392.192 175.876, 396.017 178.917, 396.898 179.427 C 398.338 180.260, 398.348 180.167, 397 178.506 C 390.836 170.912, 376.300 159, 373.198 159 C 372.704 159, 370.436 157.650, 368.159 156 C 365.881 154.350, 363.408 153, 362.664 153 C 361.919 153, 360.525 152.133, 359.566 151.073 C 358.607 150.013, 356.103 148.855, 354.003 148.501 C 351.903 148.146, 349.355 147.227, 348.342 146.459 C 347.329 145.692, 345.728 145.049, 344.785 145.032 C 343.842 145.014, 342.589 144.100, 342 143 C 341.205 141.514, 339.906 141, 336.946 141 C 333.218 141, 323.742 137.009, 322.430 134.887 C 322.126 134.395, 320.887 134.241, 319.677 134.545 C 316.764 135.276, 309.376 132.224, 310.745 130.855 C 312.181 129.419, 308.499 119.483, 304.629 114.352 C 302.908 112.070, 300.825 109.155, 300 107.875 C 299.175 106.594, 296.989 104.109, 295.142 102.353 C 292.882 100.204, 292.055 98.724, 292.614 97.830 C 293.070 97.098, 293.539 95.870, 293.655 95.100 C 293.772 94.330, 294.459 93.309, 295.184 92.832 C 296.227 92.143, 296.137 91.750, 294.750 90.932 C 292.442 89.572, 292.528 86.737, 294.943 84.551 C 296.823 82.851, 296.934 82.906, 298.331 86.249 C 299.423 88.864, 300.549 89.860, 302.958 90.342 C 305.584 90.867, 306.030 91.331, 305.503 92.989 C 304.944 94.750, 305.314 95, 308.478 95 C 311.969 95, 317 98.455, 317 100.853 C 317 101.842, 330.746 103.587, 331.623 102.710 C 331.901 102.433, 329.238 101.244, 325.705 100.068 C 316.936 97.150, 310.979 93.113, 308 88.070 C 300.882 76.019, 298.409 74.711, 282 74.313 C 275.125 74.146, 268.587 74.406, 267.471 74.891 M 175.745 80.235 C 166.795 82.508, 164.919 84.372, 162.592 93.306 C 160.796 100.203, 159.763 102.150, 155.243 107.153 C 150.763 112.112, 147.366 113.890, 139.049 115.630 C 129.500 117.628, 125.146 117.343, 115.307 114.075 C 101.669 109.546, 98.290 109.313, 92.057 112.471 C 89.176 113.931, 84.793 116.993, 82.316 119.276 C 78.122 123.142, 77.855 123.689, 78.421 127.229 C 79.532 134.182, 82.003 138.962, 84.862 139.692 C 88.939 140.733, 90.343 140.386, 95.918 136.956 C 98.768 135.202, 101.339 134.006, 101.631 134.298 C 102.414 135.081, 100.295 138.658, 95.019 145.458 C 88.656 153.660, 83.523 161.686, 81.563 166.500 C 79.208 172.285, 78.099 172.834, 71.055 171.699 C 65.719 170.840, 64.812 170.346, 63.034 167.333 L 61.029 163.935 50.265 164.556 C 37.623 165.284, 33.973 166.213, 32.127 169.169 C 30.291 172.108, 26 184.066, 26 186.243 C 26 188.880, 32.561 195.609, 37.432 197.967 C 42.449 200.396, 44.882 199.845, 51.183 194.855 C 58.829 188.800, 69.278 189.048, 76.963 195.469 C 81.278 199.074, 86.928 200.455, 91.731 199.077 C 99.585 196.825, 113.299 186.945, 125.500 174.749 C 131.801 168.452, 149.076 157.353, 161.830 151.410 C 168.248 148.419, 174.175 145.594, 175 145.133 C 175.825 144.672, 180.775 143.065, 186 141.561 C 197.877 138.144, 206.049 135.201, 207.903 133.675 C 208.688 133.029, 210.846 129.179, 212.699 125.119 C 216.653 116.459, 223.102 108.535, 230.012 103.848 C 232.727 102.007, 234.960 99.764, 234.974 98.864 C 235.007 96.793, 230.098 94.463, 222.952 93.157 C 219.266 92.483, 214.065 90.185, 207.452 86.309 C 201.979 83.100, 196.241 79.918, 194.703 79.237 C 190.923 77.565, 185.035 77.875, 175.745 80.235 M 356 96.067 C 351.325 97.730, 345.266 99.527, 342.535 100.060 C 339.804 100.593, 337.104 101.522, 336.535 102.124 C 334.784 103.974, 347.628 102.646, 349.713 100.761 C 353.066 97.729, 360.462 95.869, 365.060 96.902 C 367.360 97.419, 369.727 98.327, 370.321 98.921 C 370.914 99.514, 372.408 100, 373.641 100 C 374.874 100, 376.140 100.417, 376.455 100.927 C 376.770 101.437, 378.709 102.387, 380.764 103.038 C 382.819 103.688, 386.525 105.169, 389 106.329 C 391.475 107.488, 393.576 108.451, 393.669 108.470 C 393.762 108.489, 394.163 109.799, 394.560 111.382 L 395.282 114.261 389.391 113.666 C 386.151 113.338, 382.038 112.779, 380.250 112.422 C 377.151 111.803, 377 111.915, 377 114.828 C 377 117.377, 377.979 118.636, 382.914 122.434 C 386.167 124.937, 388.979 127.342, 389.164 127.779 C 389.349 128.216, 391.419 130.100, 393.764 131.965 C 396.109 133.831, 400.097 138.175, 402.625 141.619 C 405.154 145.064, 408.973 149.040, 411.112 150.455 C 414.118 152.445, 415 153.675, 415 155.879 C 415 157.447, 415.900 159.874, 417 161.273 C 418.100 162.671, 419 164.241, 419 164.762 C 419 165.282, 420.125 166.922, 421.500 168.405 C 422.875 169.889, 424 171.739, 424 172.516 C 424 175.312, 427.854 175.964, 443.401 175.798 L 459 175.632 459 171.971 C 459 169.644, 459.692 167.683, 460.901 166.590 C 464.267 163.544, 464.473 158.483, 461.442 153.311 C 455.552 143.260, 447.471 136.635, 441.776 137.187 L 438.500 137.505 441.500 139.196 C 446.480 142.003, 452.221 148.138, 457.616 156.420 C 460.630 161.046, 461.124 164.813, 458.905 166.257 C 455.947 168.181, 452.568 166.165, 447.210 159.281 C 444.301 155.543, 440.318 151.386, 438.361 150.045 C 436.403 148.704, 433.690 146.149, 432.331 144.367 C 430.303 141.708, 430.059 140.759, 430.966 139.064 C 431.979 137.170, 431.795 137, 428.735 137 C 425.107 137, 423 138.477, 423 141.021 C 423 141.913, 426.381 145.900, 430.514 149.883 C 439.436 158.480, 446.429 167.440, 445.700 169.340 C 445.200 170.643, 438.654 172.018, 433.110 171.984 C 430.473 171.968, 426.890 167.212, 418.651 152.788 C 417.171 150.196, 414.169 146.006, 411.980 143.477 C 409.791 140.948, 408 138.412, 408 137.842 C 408 137.272, 404.980 133.678, 401.289 129.855 C 395.347 123.700, 394.718 122.682, 395.789 120.965 C 397.605 118.059, 397.323 107.906, 395.349 105.087 C 394.440 103.791, 389.378 100.682, 384.099 98.179 C 371.708 92.305, 367.469 91.987, 356 96.067 M 310.044 148.447 C 309.088 149.599, 309.673 152.482, 312.922 162.620 C 315.165 169.619, 317 175.718, 317 176.173 C 317 177.539, 313.654 177.118, 307.407 174.965 C 294.378 170.477, 278.405 168.720, 251 168.762 C 223.977 168.803, 215.160 169.880, 200.704 174.908 C 193.234 177.506, 192.808 176.601, 196.345 165.653 C 201.102 150.932, 200.873 149, 194.371 149 C 187.064 149, 162.546 160.201, 147.500 170.413 C 136.458 177.908, 133 181.153, 133 184.021 C 133 186.479, 135.080 187.539, 143.784 189.519 C 149.490 190.817, 152.478 192.290, 159.098 197.071 C 163.621 200.337, 169.160 203.505, 171.407 204.110 C 176.240 205.411, 180.721 204.227, 196.685 197.430 C 208.021 192.604, 213.177 191.071, 226.815 188.475 C 235.284 186.862, 236.273 186.844, 237.702 188.273 C 239.648 190.219, 238.794 192.725, 235.778 193.920 C 234.525 194.416, 228.721 195.549, 222.881 196.437 C 205.452 199.088, 179.760 208.472, 163.488 218.131 C 152.714 224.526, 131.814 244.735, 130.013 250.500 C 129.325 252.700, 127.180 257.875, 125.245 262 C 122.761 267.297, 121.457 271.850, 120.803 277.500 C 119.373 289.872, 120.046 292.123, 128.004 301.573 C 142.349 318.609, 174.132 336.382, 202 342.954 C 219.880 347.170, 223.512 347.880, 233.276 349.066 C 247.025 350.736, 253 349.463, 253 344.863 C 253 342.354, 247.685 339.221, 242.033 338.396 C 235.004 337.371, 223.791 333.062, 220.768 330.224 C 216.985 326.674, 214.305 319.542, 215.991 317.511 C 217.511 315.680, 221.516 315.530, 223 317.250 C 223.594 317.938, 225.074 320.525, 226.290 323 C 230.308 331.182, 243.237 335.344, 250.291 330.727 L 253 328.954 253 311.033 C 253 288.760, 253.580 289.703, 236.696 284.521 C 218.245 278.857, 214.415 274.204, 215.137 258.329 C 215.435 251.782, 215.967 249.648, 218.108 246.413 C 221.493 241.298, 228.441 237.590, 238.500 235.528 C 247.797 233.623, 250.765 231.974, 252.176 227.926 C 253.032 225.469, 253.738 225, 256.579 225 C 259.318 225, 260.077 225.458, 260.566 227.405 C 261.603 231.539, 265.151 233.849, 272.996 235.499 C 284.878 237.999, 292.349 243.468, 295.047 251.641 C 296.131 254.928, 296.059 255.484, 294.383 256.709 C 291.309 258.957, 287.785 257.937, 286.754 254.500 C 285.073 248.898, 283.581 246.839, 279.449 244.417 C 274.206 241.345, 266.340 241.094, 262.888 243.890 C 260.600 245.742, 260.554 246.134, 260.527 263.984 L 260.500 282.189 263.440 284.533 C 265.056 285.822, 269.409 287.620, 273.113 288.528 C 281.994 290.704, 290.466 296.033, 293.028 301.055 C 296.515 307.890, 295.037 322.425, 290.281 328.078 C 287.122 331.832, 279.900 335.556, 271.735 337.642 C 264.963 339.371, 260 342.300, 260 344.568 C 260 347.878, 263.815 350, 269.750 349.991 C 276.655 349.980, 295.542 347.663, 302.500 345.974 C 328.788 339.589, 352.556 330.314, 363.370 322.218 C 366.192 320.106, 371.030 316.713, 374.123 314.676 C 382.068 309.446, 384.837 305.004, 386.482 294.854 C 387.707 287.291, 387.652 285.432, 385.894 275.223 C 382.468 255.332, 379.950 250.909, 361.533 232.436 C 350.653 221.522, 342.229 215.825, 327.892 209.686 C 323.158 207.659, 318.848 206, 318.314 206 C 317.781 206, 313.371 204.440, 308.515 202.534 C 299.012 198.803, 289.727 196.698, 275.547 195.058 C 265.803 193.931, 262.708 192.282, 264.618 189.231 C 266.054 186.938, 270.952 186.538, 279.500 188.016 C 295.400 190.765, 299.764 192.186, 319.557 201.056 C 331.220 206.283, 336.019 205.824, 345.757 198.552 C 348.916 196.193, 352.940 193.529, 354.700 192.632 C 358.993 190.443, 369.493 188.033, 374.816 188.015 C 380.086 187.997, 383 186.567, 383 183.998 C 383 181.919, 377.645 176.068, 373.220 173.313 C 371.724 172.382, 366.729 169.176, 362.120 166.190 C 353.793 160.794, 339.813 154.190, 326.722 149.468 C 319.015 146.688, 311.867 146.250, 310.044 148.447 M 322.667 150.667 C 321.399 151.934, 322.008 153, 324 153 C 325.111 153, 326 152.333, 326 151.500 C 326 149.978, 323.885 149.449, 322.667 150.667 M 323.667 154.667 C 322.434 155.899, 322.986 161.049, 324.618 163.540 C 326.286 166.086, 327.283 175.461, 326.386 180.166 C 325.402 185.327, 315.367 186.968, 308.239 183.134 C 306.995 182.465, 305.420 182.009, 304.739 182.122 C 304.057 182.234, 302.298 181.988, 300.829 181.574 C 295.914 180.191, 294.190 181.551, 299 183.018 C 301.475 183.772, 305.179 185.427, 307.230 186.695 C 309.282 187.963, 311.182 189, 311.453 189 C 311.988 189, 321.561 193.210, 326.686 195.699 C 330.410 197.508, 335.586 196.868, 339.149 194.160 C 344.657 189.972, 353.288 185.992, 360.144 184.479 C 374.613 181.284, 375 181.130, 375 178.533 C 375 176.855, 374.064 175.680, 371.846 174.573 C 370.112 173.708, 368.121 173, 367.423 173 C 365.593 173, 360 168.070, 360 166.456 C 360 165.681, 358.451 164.800, 356.420 164.419 C 354.451 164.050, 352.603 163.129, 352.313 162.374 C 351.996 161.546, 350.292 161, 348.028 161 C 345.693 161, 343.231 160.183, 341.529 158.844 C 337.729 155.855, 325.369 152.965, 323.667 154.667 M 459 182.377 C 459 184.003, 465.166 189.207, 469.353 191.115 C 472.678 192.630, 472.463 195.394, 468.991 195.769 C 466.641 196.023, 465.282 195.346, 458.417 190.500 C 455.990 188.787, 453.972 188.500, 444.364 188.500 C 434.216 188.500, 432.876 188.716, 430.323 190.759 C 425.968 194.244, 423.507 194.966, 418.146 194.331 C 413.832 193.820, 412.415 192.996, 407.030 187.873 C 403.636 184.643, 400.354 182, 399.738 182 C 399.122 182, 399.317 182.563, 400.172 183.250 C 401.027 183.938, 403.638 187.081, 405.973 190.236 C 411.752 198.043, 415.705 200.379, 422.097 199.765 C 425.699 199.419, 428.566 198.254, 432.521 195.530 C 437.743 191.933, 438.265 191.790, 444.738 192.176 C 450.710 192.533, 452.139 193.042, 456.967 196.540 C 462.013 200.195, 463.021 200.527, 470.047 200.848 C 476.149 201.127, 477.992 200.865, 479.330 199.527 C 481.824 197.033, 481.440 196.210, 476.385 193.225 C 468.873 188.790, 463.647 185.268, 461.250 183.026 C 459.578 181.463, 459 181.296, 459 182.377 M 290 207.965 C 290 208.495, 290.986 209.457, 292.190 210.102 L 294.380 211.274 292.190 213.047 C 289.029 215.606, 289.491 217, 293.500 217 C 295.425 217, 297 217.450, 297 218 C 297 218.550, 296.334 219, 295.519 219 C 293.669 219, 292.572 223.111, 293.365 227.075 C 293.783 229.165, 293.537 230.240, 292.556 230.617 C 291.586 230.989, 293.314 233.257, 298.099 237.892 C 304.700 244.287, 305.101 244.939, 306.045 250.799 C 307.432 259.413, 305.791 263.159, 299.316 266.158 C 296.667 267.385, 294.149 268.864, 293.720 269.444 C 293.291 270.025, 293.052 273.425, 293.188 277 C 293.325 280.575, 293.084 284.067, 292.653 284.760 C 292.148 285.572, 293.046 286.986, 295.185 288.742 C 305.702 297.381, 307.509 301.402, 306.731 314.442 C 306.089 325.191, 302.677 334.029, 298.227 336.466 C 292.739 339.472, 291.583 340.793, 292.974 342.469 C 294.765 344.627, 297.670 344.371, 298.290 342 C 298.898 339.674, 301.680 339.443, 304.387 341.492 C 306.025 342.732, 306.550 342.728, 308.360 341.461 C 309.507 340.657, 312.343 340, 314.663 340 C 316.984 340, 319.160 339.550, 319.500 339 C 319.840 338.450, 321.351 338, 322.859 338 C 324.367 338, 326.162 337.438, 326.850 336.750 C 327.537 336.063, 329.888 335.472, 332.074 335.437 C 334.984 335.392, 336.460 334.789, 337.581 333.187 C 338.557 331.794, 340.164 331, 342.007 331 C 343.598 331, 345.260 330.391, 345.700 329.646 C 346.766 327.841, 350.390 326, 352.877 326 C 355.281 326, 361.628 322.412, 362.294 320.677 C 362.554 319.999, 365.312 318.157, 368.422 316.584 C 371.533 315.010, 374.469 312.993, 374.946 312.101 C 376.526 309.149, 377.937 285.887, 377.014 278 C 375.174 262.263, 372.725 256.095, 364.985 247.699 C 355.540 237.453, 353.027 234.420, 353.014 233.250 C 353.006 232.563, 352.595 232, 352.099 232 C 351.604 232, 348.566 230.043, 345.349 227.651 C 338.735 222.733, 324.004 215.334, 318.895 214.363 C 317.028 214.009, 315.024 213.349, 314.443 212.897 C 313.861 212.445, 310.936 211.411, 307.943 210.599 C 304.949 209.787, 300.928 208.645, 299.007 208.061 C 294.648 206.737, 290 206.688, 290 207.965 M 234.326 243.428 C 227.647 246.538, 225.847 249.403, 225.240 257.890 C 224.633 266.367, 226.071 270.978, 230.547 274.907 C 234.582 278.450, 242.885 281.173, 247.089 280.332 C 252.834 279.183, 253.541 276.980, 253.319 260.921 C 253.209 252.989, 253.093 246.156, 253.060 245.735 C 252.932 244.107, 246.329 241.008, 243 241.014 C 241.075 241.017, 237.172 242.104, 234.326 243.428 M 240.688 255.646 C 240.309 256.024, 240 259.183, 240 262.667 C 240 268.380, 240.200 269, 242.046 269 C 243.932 269, 244.068 268.479, 243.796 262.330 C 243.525 256.213, 242.444 253.889, 240.688 255.646 M 263.875 296.506 C 262.432 297.291, 261.042 298.735, 260.787 299.716 C 260.532 300.697, 260.588 307.669, 260.912 315.209 C 261.433 327.353, 261.728 329.090, 263.500 330.427 C 266.320 332.555, 274.320 332.388, 278.790 330.106 C 284.730 327.075, 286.139 324.843, 286.986 317.125 C 288.292 305.231, 286.734 301.541, 278.720 297.548 C 273.038 294.716, 267.840 294.352, 263.875 296.506 M 133.676 327.750 C 132.712 329.388, 135.086 332.968, 139.570 336.639 C 142.164 338.763, 147.259 343.111, 150.893 346.303 C 157.249 351.885, 160.806 354.108, 178.658 363.653 C 191.310 370.417, 220.587 379, 231.008 379 C 236.478 379, 238 380.490, 238 385.844 C 238 388.470, 238.563 391.329, 239.250 392.199 C 239.938 393.069, 244.567 396.231, 249.538 399.226 C 254.614 402.284, 260.925 407.155, 263.937 410.340 C 270.791 417.587, 274.261 418.744, 284.225 417.104 C 288.226 416.446, 293.844 414.836, 296.709 413.528 C 301.121 411.512, 302.629 410.039, 306.568 403.893 C 309.126 399.903, 311.844 396.013, 312.609 395.248 C 313.374 394.483, 314 392.741, 314 391.378 C 314 388.126, 309.058 386, 301.500 386 C 294.208 386, 290.094 387.830, 286.126 392.841 C 281.087 399.203, 272.644 400.520, 268.186 395.639 C 265.686 392.902, 264.293 382.826, 266.199 381.263 C 266.914 380.677, 270.650 379.878, 274.500 379.489 C 283.112 378.619, 298.664 375.525, 304.877 373.446 C 323.675 367.158, 330.931 363.583, 355 348.753 C 360.748 345.212, 363.699 341.263, 362.646 338.520 C 361.854 336.457, 356.871 337.278, 349.029 340.763 C 337.728 345.785, 312.318 353.138, 297.500 355.674 C 285.352 357.753, 232.788 358.095, 222 356.165 C 218.425 355.525, 213.128 354.577, 210.228 354.058 C 207.328 353.538, 203.503 352.647, 201.728 352.076 C 199.953 351.506, 192.073 349.018, 184.218 346.548 C 175.065 343.670, 164.523 339.354, 154.862 334.529 C 141.177 327.694, 134.893 325.683, 133.676 327.750 M 324.587 351.032 C 322.435 352.106, 319.960 353.631, 319.087 354.422 C 317.931 355.467, 317.006 355.583, 315.691 354.847 C 314.261 354.047, 313.381 354.375, 311.489 356.417 C 309.794 358.247, 308.074 359, 305.595 359 C 301.327 359, 297 360.843, 297 362.661 C 297 364.387, 295.009 364.322, 292.625 362.516 C 291.533 361.690, 291 360.444, 291.348 359.536 C 291.833 358.273, 291.428 358.100, 289.223 358.628 C 285.644 359.487, 285.653 359.472, 287.171 361.903 C 287.892 363.056, 289.305 364, 290.312 364 C 291.319 364, 292.853 364.710, 293.721 365.578 C 294.725 366.583, 296.061 366.909, 297.399 366.478 C 298.555 366.105, 303.325 364.745, 308 363.455 C 324.721 358.841, 329.099 357.106, 332.082 353.913 C 333.683 352.199, 334.743 350.392, 334.437 349.898 C 333.517 348.409, 328.743 348.958, 324.587 351.032 M 297.746 398.625 C 296.236 399.416, 295 400.725, 295 401.532 C 295 403.547, 296.010 403.329, 299.358 400.590 C 302.727 397.834, 301.683 396.562, 297.746 398.625 M 289 405 C 289 406.253, 290.061 406.253, 292 405 C 293.213 404.216, 293.069 404.028, 291.250 404.015 C 290.012 404.007, 289 404.450, 289 405" stroke="none" fill="#1468af" fill-rule="evenodd"/></svg>